# Blender 5.1.2
# www.blender.org
mtllib head.mtl
o Cube
v 0.488597 0.849678 1.000000
v -0.488597 0.849678 1.000000
v -0.488597 0.849678 -1.000000
v 0.488598 0.849678 -1.000000
v 2.206792 1.000000 -0.729838
v 1.936630 1.000000 -1.000000
v 2.127663 1.000000 -0.920871
v 1.936630 1.000000 1.000000
v 2.206792 1.000000 0.729838
v 2.127663 1.000000 0.920871
v -1.936630 1.000000 -1.000000
v -2.206792 1.000000 -0.729838
v -2.127663 1.000000 -0.920871
v -2.206792 1.000000 0.729838
v -1.936630 1.000000 1.000000
v -2.127663 1.000000 0.920871
v 0.829123 -0.949237 -1.000000
v 0.768444 -1.219399 -0.729838
v 0.786216 -1.140270 -0.920871
v 0.256148 -1.219399 -0.729838
v 0.294401 -0.949237 -1.000000
v 0.267352 -1.140270 -0.920871
v -0.256148 -1.219399 -0.729838
v -0.294401 -0.949237 -1.000000
v -0.267352 -1.140270 -0.920871
v -0.768444 -1.219399 -0.729838
v -0.829123 -0.949237 -1.000000
v -0.786216 -1.140270 -0.920871
v 1.127298 1.000000 0.729838
v 1.357310 0.598404 1.000000
v 1.194667 0.882375 0.920871
v -1.357310 0.598404 1.000000
v -1.127298 1.000000 0.729838
v -1.194667 0.882375 0.920871
v -0.829123 -0.949237 1.000000
v -0.768444 -1.219399 0.729838
v -0.786216 -1.140270 0.920871
v -0.256148 -1.219399 0.729838
v -0.294401 -0.949237 1.000000
v -0.267352 -1.140270 0.920871
v 0.256148 -1.219399 0.729838
v 0.294401 -0.949237 1.000000
v 0.267352 -1.140270 0.920871
v 0.768444 -1.219399 0.729838
v 0.829123 -0.949237 1.000000
v 0.786216 -1.140270 0.920871
v -1.127298 1.000000 -0.729838
v -1.357310 0.598404 -1.000000
v -1.194667 0.882375 -0.920871
v 1.357310 0.598404 -1.000000
v 1.127298 1.000000 -0.729838
v 1.194667 0.882375 -0.920871
v -1.127298 2.120660 0.088720
v -1.357310 2.390822 0.124287
v -1.194667 2.311694 0.113870
v -1.127298 1.479542 0.729838
v -1.357310 1.515110 1.000000
v -1.194667 1.504692 0.920871
v -1.127298 2.031278 0.422297
v -1.357310 2.273499 0.562144
v -1.194667 2.202554 0.521184
v -1.127298 1.813120 0.640456
v -1.357310 1.952966 0.882677
v -1.194667 1.912006 0.811732
v -2.206792 1.479542 0.729838
v -1.936630 1.515110 1.000000
v -2.127663 1.504692 0.920871
v -2.206792 2.120660 0.088720
v -1.936630 2.390822 0.124287
v -2.127663 2.311694 0.113870
v -2.206792 1.813120 0.640456
v -1.936630 1.952966 0.882677
v -2.127663 1.912006 0.811732
v -2.206792 2.031278 0.422297
v -1.936630 2.273499 0.562144
v -2.127663 2.202554 0.521184
v 2.206792 1.479542 -0.729838
v 1.936630 1.515110 -1.000000
v 2.127663 1.504692 -0.920871
v 2.206792 2.120660 -0.088720
v 1.936630 2.390822 -0.124287
v 2.127663 2.311694 -0.113870
v 2.206792 1.813120 -0.640456
v 1.936630 1.952966 -0.882677
v 2.127663 1.912006 -0.811732
v 2.206792 2.031278 -0.422297
v 1.936630 2.273499 -0.562144
v 2.127663 2.202554 -0.521184
v 2.206792 2.120660 0.088720
v 1.936630 2.390822 0.124287
v 2.127663 2.311694 0.113870
v 2.206792 1.479542 0.729838
v 1.936630 1.515110 1.000000
v 2.127663 1.504692 0.920871
v 2.206792 2.031278 0.422298
v 1.936630 2.273499 0.562144
v 2.127663 2.202554 0.521184
v 2.206792 1.813120 0.640456
v 1.936630 1.952966 0.882677
v 2.127663 1.912006 0.811732
v -2.206792 2.120660 -0.088720
v -1.936630 2.390822 -0.124287
v -2.127663 2.311694 -0.113870
v -2.206792 1.479542 -0.729838
v -1.936630 1.515110 -1.000000
v -2.127663 1.504692 -0.920871
v -2.206792 2.031278 -0.422298
v -1.936630 2.273499 -0.562144
v -2.127663 2.202554 -0.521184
v -2.206792 1.813120 -0.640456
v -1.936630 1.952966 -0.882677
v -2.127663 1.912006 -0.811732
v 1.127298 2.120660 -0.088720
v 1.357310 2.390822 -0.124287
v 1.194667 2.311694 -0.113870
v 1.127298 1.479542 -0.729838
v 1.357310 1.515110 -1.000000
v 1.194667 1.504692 -0.920871
v 1.127298 2.031278 -0.422297
v 1.357310 2.273499 -0.562144
v 1.194667 2.202554 -0.521184
v 1.127298 1.813120 -0.640456
v 1.357310 1.952966 -0.882677
v 1.194667 1.912006 -0.811732
v 1.127298 1.479542 0.729838
v 1.357310 1.515110 1.000000
v 1.194667 1.504692 0.920871
v 1.127298 2.120660 0.088720
v 1.357310 2.390822 0.124287
v 1.194667 2.311694 0.113870
v 1.127298 1.813120 0.640456
v 1.357310 1.952966 0.882677
v 1.194667 1.912006 0.811732
v 1.127298 2.031278 0.422297
v 1.357310 2.273499 0.562144
v 1.194667 2.202554 0.521184
v -1.127298 1.479542 -0.729838
v -1.357310 1.515110 -1.000000
v -1.194667 1.504692 -0.920871
v -1.127298 2.120660 -0.088720
v -1.357310 2.390822 -0.124287
v -1.194667 2.311694 -0.113870
v -1.127298 1.813120 -0.640456
v -1.357310 1.952966 -0.882677
v -1.194667 1.912006 -0.811732
v -1.127298 2.031278 -0.422297
v -1.357310 2.273499 -0.562144
v -1.194667 2.202554 -0.521184
v 1.853042 0.000323 -1.000000
v 2.111544 -0.035245 -0.729838
v 2.035830 -0.024827 -0.920871
v 0.944467 -0.949237 -1.000000
v 0.978499 -1.219399 -0.729838
v 0.968531 -1.140270 -0.920871
v 1.727978 -0.487476 -1.000000
v 1.959744 -0.627322 -0.729838
v 1.891862 -0.586362 -0.920871
v 1.411211 -0.818531 -1.000000
v 1.545022 -1.060752 -0.729838
v 1.505829 -0.989807 -0.920871
v 0.944467 -0.949237 1.000000
v 0.978499 -1.219399 0.729838
v 0.968531 -1.140270 0.920871
v 1.853042 0.000323 1.000000
v 2.111544 -0.035245 0.729838
v 2.035830 -0.024827 0.920871
v 1.411211 -0.818531 1.000000
v 1.545022 -1.060752 0.729838
v 1.505829 -0.989807 0.920871
v 1.727978 -0.487476 1.000000
v 1.959744 -0.627322 0.729838
v 1.891862 -0.586362 0.920871
v -0.944467 -0.949237 -1.000000
v -0.978499 -1.219399 -0.729838
v -0.968532 -1.140270 -0.920871
v -1.853042 0.000323 -1.000000
v -2.111544 -0.035245 -0.729838
v -2.035830 -0.024827 -0.920871
v -1.411211 -0.818531 -1.000000
v -1.545022 -1.060752 -0.729838
v -1.505829 -0.989807 -0.920871
v -1.727978 -0.487476 -1.000000
v -1.959744 -0.627322 -0.729838
v -1.891862 -0.586362 -0.920871
v -1.853042 0.000323 1.000000
v -2.111544 -0.035245 0.729838
v -2.035830 -0.024827 0.920871
v -0.944467 -0.949237 1.000000
v -0.978499 -1.219399 0.729838
v -0.968531 -1.140270 0.920871
v -1.727978 -0.487476 1.000000
v -1.959744 -0.627322 0.729838
v -1.891862 -0.586362 0.920871
v -1.411211 -0.818531 1.000000
v -1.545022 -1.060752 0.729838
v -1.505829 -0.989807 0.920871
v 0.594353 0.923718 1.000000
v 0.863988 1.112491 0.729838
v 0.785014 1.057200 0.920871
v 0.193576 1.251249 0.729838
v 0.405721 0.962487 1.000000
v 0.255712 1.166673 0.920871
v -0.405721 0.962487 1.000000
v -0.193576 1.251249 0.729838
v -0.255712 1.166673 0.920871
v -0.863988 1.112491 0.729838
v -0.594353 0.923718 1.000000
v -0.785014 1.057201 0.920871
v -0.594353 0.923718 -1.000000
v -0.863988 1.112491 -0.729838
v -0.785014 1.057200 -0.920871
v -0.193576 1.251249 -0.729838
v -0.405721 0.962487 -1.000000
v -0.255712 1.166673 -0.920871
v 0.405721 0.962487 -1.000000
v 0.193576 1.251249 -0.729838
v 0.255712 1.166673 -0.920871
v 0.863988 1.112491 -0.729838
v 0.594353 0.923718 -1.000000
v 0.785014 1.057201 -0.920871
vn -0.0000 -0.9239 -0.3827
vn -0.0000 -0.3827 -0.9239
vn -0.0000 -0.9239 0.3827
vn -0.0000 -0.3827 0.9239
vn 0.9431 0.3212 0.0861
vn 0.4375 0.8686 0.2327
vn -0.9239 0.3696 0.0990
vn -0.3827 0.8924 0.2391
vn 0.9431 0.2352 0.2352
vn 0.4375 0.6358 0.6358
vn -0.9239 0.2706 0.2706
vn -0.3827 0.6533 0.6533
vn 0.9431 0.0861 0.3212
vn 0.4375 0.2327 0.8686
vn -0.9239 0.0990 0.3696
vn -0.3827 0.2391 0.8924
vn -0.9431 0.3212 -0.0861
vn -0.4375 0.8686 -0.2327
vn 0.9239 0.3696 -0.0990
vn 0.3827 0.8924 -0.2391
vn -0.9431 0.2352 -0.2352
vn -0.4375 0.6358 -0.6358
vn 0.9239 0.2706 -0.2706
vn 0.3827 0.6533 -0.6533
vn -0.9431 0.0861 -0.3212
vn -0.4375 0.2327 -0.8686
vn 0.9239 0.0990 -0.3696
vn 0.3827 0.2391 -0.8924
vn 0.9239 0.3696 0.0990
vn 0.3827 0.8924 0.2391
vn -0.9431 0.3212 0.0861
vn -0.4375 0.8686 0.2327
vn 0.9239 0.2706 0.2706
vn 0.3827 0.6533 0.6533
vn -0.9431 0.2352 0.2352
vn -0.4375 0.6358 0.6358
vn 0.9239 0.0990 0.3696
vn 0.3827 0.2391 0.8924
vn -0.9431 0.0861 0.3212
vn -0.4375 0.2327 0.8686
vn -0.9239 0.3696 -0.0990
vn -0.3827 0.8924 -0.2391
vn 0.9431 0.3212 -0.0861
vn 0.4375 0.8686 -0.2327
vn -0.9239 0.2706 -0.2706
vn -0.3827 0.6533 -0.6533
vn 0.9431 0.2352 -0.2352
vn 0.4375 0.6358 -0.6358
vn -0.9239 0.0990 -0.3696
vn -0.3827 0.2391 -0.8924
vn 0.9431 0.0861 -0.3212
vn 0.4375 0.2327 -0.8686
vn -0.9239 -0.0000 0.3827
vn -0.3827 -0.0000 0.9239
vn 0.9431 -0.0000 0.3326
vn 0.4375 -0.0000 0.8992
vn 0.9431 0.3326 -0.0000
vn 0.4375 0.8992 -0.0000
vn -0.9239 0.3827 -0.0000
vn -0.3827 0.9239 -0.0000
vn 0.4375 -0.0000 -0.8992
vn 0.9431 -0.0000 -0.3326
vn -0.3827 -0.0000 -0.9239
vn -0.9239 -0.0000 -0.3827
vn 0.3827 -0.0000 0.9239
vn 0.9239 -0.0000 0.3827
vn 0.3827 -0.0000 -0.9239
vn 0.9239 -0.0000 -0.3827
vn 0.3827 0.9239 -0.0000
vn 0.9239 0.3827 -0.0000
vn -0.9431 0.3326 -0.0000
vn -0.4375 0.8992 -0.0000
vn -0.9431 -0.0000 -0.3326
vn -0.4375 -0.0000 -0.8992
vn -0.9431 -0.0000 0.3326
vn -0.4375 -0.0000 0.8992
vn -0.1035 -0.3695 -0.9235
vn -0.2492 -0.8901 -0.3817
vn -0.1035 -0.3695 0.9235
vn -0.2492 -0.8901 0.3817
vn -0.2819 -0.2697 -0.9208
vn -0.6697 -0.6408 -0.3754
vn -0.2819 -0.2697 0.9208
vn -0.6697 -0.6408 0.3754
vn -0.3839 -0.0984 -0.9181
vn -0.9002 -0.2308 -0.3694
vn -0.3839 -0.0984 0.9181
vn -0.9002 -0.2308 0.3694
vn 0.1035 -0.3695 0.9235
vn 0.2492 -0.8901 0.3817
vn 0.1035 -0.3695 -0.9235
vn 0.2492 -0.8901 -0.3817
vn 0.2819 -0.2697 0.9208
vn 0.6697 -0.6408 0.3754
vn 0.2819 -0.2697 -0.9208
vn 0.6697 -0.6408 -0.3754
vn 0.3839 -0.0984 0.9181
vn 0.9002 -0.2308 0.3694
vn 0.3839 -0.0984 -0.9181
vn 0.9002 -0.2308 -0.3694
vn 0.9206 -0.0847 -0.3813
vn 0.3825 -0.0343 -0.9233
vn 0.3825 -0.0343 0.9233
vn 0.9206 -0.0847 0.3813
vn -0.9249 -0.0829 -0.3711
vn -0.3932 -0.0329 -0.9188
vn -0.3932 -0.0329 0.9188
vn -0.9249 -0.0829 0.3711
vn 0.1901 0.9193 0.3447
vn 0.0853 0.4151 0.9058
vn -0.1902 0.9191 0.3450
vn -0.0856 0.4141 0.9062
vn -0.1901 0.9193 -0.3447
vn -0.0853 0.4151 -0.9058
vn 0.1902 0.9191 -0.3450
vn 0.0856 0.4141 -0.9062
vn 0.1459 0.3422 -0.9282
vn 0.3609 0.8456 -0.3934
vn 0.1459 0.3419 0.9283
vn 0.3611 0.8452 0.3939
vn -0.0000 0.9144 0.4048
vn -0.0000 0.3613 0.9324
vn -0.0000 0.3613 -0.9324
vn -0.0000 0.9144 -0.4048
vn -0.3611 0.8452 0.3939
vn -0.1459 0.3419 0.9283
vn -0.1459 0.3419 -0.9283
vn -0.3611 0.8452 -0.3939
vn 0.9958 -0.0916 -0.0000
vn -0.0000 -0.0000 -1.0000
vn 1.0000 -0.0000 -0.0000
vn -0.0000 -0.0000 1.0000
vn -0.9958 -0.0916 -0.0000
vn -1.0000 -0.0000 -0.0000
vn -0.0000 -1.0000 -0.0000
vn 0.3929 0.9196 -0.0000
vn -0.3929 0.9196 -0.0000
vn -0.0000 0.9659 0.2588
vn -0.0000 1.0000 -0.0000
vn -0.0000 0.2588 0.9659
vn -0.0000 0.7071 0.7071
vn -0.0000 0.2588 -0.9659
vn -0.0000 0.9659 -0.2588
vn -0.0000 0.7071 -0.7071
vn 0.9687 -0.2484 -0.0000
vn 0.2697 -0.9630 -0.0000
vn 0.7225 -0.6913 -0.0000
vn -0.2697 -0.9630 -0.0000
vn -0.9687 -0.2484 -0.0000
vn -0.7225 -0.6913 -0.0000
vn 0.2027 0.9792 -0.0000
vn -0.2027 0.9792 -0.0000
vn 0.9249 -0.0829 -0.3711
vn 0.3932 -0.0329 -0.9188
vn 0.3932 -0.0329 0.9188
vn 0.9249 -0.0829 0.3711
vn -0.9206 -0.0847 -0.3813
vn -0.3825 -0.0343 -0.9233
vn -0.3825 -0.0343 0.9233
vn -0.9206 -0.0847 0.3813
vn 0.1902 0.9191 0.3450
vn 0.0856 0.4141 0.9062
vn -0.1901 0.9193 0.3447
vn -0.0853 0.4151 0.9058
vn -0.1902 0.9191 -0.3450
vn -0.0856 0.4141 -0.9062
vn 0.1901 0.9193 -0.3447
vn 0.0853 0.4151 -0.9058
vn 0.1459 0.3419 -0.9283
vn 0.3611 0.8452 -0.3939
vn 0.1459 0.3422 0.9282
vn 0.3609 0.8456 0.3934
vn -0.3609 0.8456 0.3934
vn -0.1459 0.3422 0.9282
vn -0.1459 0.3422 -0.9282
vn -0.3609 0.8456 -0.3934
vt 0.325000 0.533770
vt 0.275547 0.500000
vt 0.325926 0.499405
vt 0.373810 0.451520
vt 0.402337 0.400000
vt 0.405432 0.450000
vt 0.275000 0.533770
vt 0.224453 0.500000
vt 0.375000 0.400547
vt 0.402337 0.350000
vt 0.175000 0.533770
vt 0.225000 0.533770
vt 0.375000 0.299669
vt 0.375000 0.349453
vt 0.175000 0.716230
vt 0.224453 0.750000
vt 0.174669 0.750000
vt 0.375000 0.950331
vt 0.402337 0.900000
vt 0.405432 0.950000
vt 0.275000 0.716230
vt 0.225000 0.716230
vt 0.375000 0.900547
vt 0.402337 0.850000
vt 0.325000 0.716230
vt 0.275547 0.750000
vt 0.373810 0.798480
vt 0.375000 0.849453
vt 0.825000 0.688243
vt 0.825000 0.640828
vt 0.825000 0.720272
vt 0.840303 0.640536
vt 0.840303 0.731010
vt 0.625000 0.073112
vt 0.625000 0.109486
vt 0.625000 0.116173
vt 0.875000 0.744880
vt 0.859697 0.640536
vt 0.875000 0.641143
vt 0.825000 0.709251
vt 0.825000 0.735380
vt 0.625000 0.950000
vt 0.625000 0.965303
vt 0.625000 0.045567
vt 0.625000 0.055075
vt 0.625000 1.000000
vt 0.625000 0.984697
vt 0.825000 0.749831
vt 0.825000 0.717083
vt 0.625000 0.000169
vt 0.625000 0.015259
vt 0.675000 0.561757
vt 0.675000 0.609172
vt 0.675000 0.529728
vt 0.659697 0.609464
vt 0.659697 0.524574
vt 0.625000 0.556764
vt 0.625000 0.609067
vt 0.625000 0.610686
vt 0.625000 0.520065
vt 0.640303 0.609464
vt 0.675000 0.540748
vt 0.675000 0.514619
vt 0.625000 0.450000
vt 0.625000 0.466799
vt 0.625000 0.535547
vt 0.625000 0.488089
vt 0.632651 0.509197
vt 0.675000 0.500169
vt 0.675000 0.532917
vt 0.625000 0.465303
vt 0.625000 0.500056
vt 0.625000 0.505086
vt 0.625000 0.484697
vt 0.625000 0.693236
vt 0.625000 0.640933
vt 0.625000 0.729935
vt 0.640303 0.640536
vt 0.632651 0.740803
vt 0.675000 0.688243
vt 0.675000 0.640828
vt 0.675000 0.638391
vt 0.675000 0.720272
vt 0.659697 0.640536
vt 0.625000 0.744913
vt 0.625000 0.714453
vt 0.625000 0.761911
vt 0.675000 0.709251
vt 0.625000 0.800000
vt 0.625000 0.779113
vt 0.625000 0.749944
vt 0.625000 0.718662
vt 0.625000 0.765303
vt 0.675000 0.749831
vt 0.675000 0.735380
vt 0.625000 0.784697
vt 0.625000 0.783201
vt 0.625000 0.190650
vt 0.625000 0.140828
vt 0.625000 0.222055
vt 0.875000 0.505120
vt 0.859697 0.609464
vt 0.859697 0.508376
vt 0.825000 0.561757
vt 0.825000 0.609172
vt 0.825000 0.611609
vt 0.825000 0.529728
vt 0.840303 0.609464
vt 0.625000 0.244700
vt 0.625000 0.213679
vt 0.625000 0.261911
vt 0.825000 0.540749
vt 0.625000 0.300000
vt 0.625000 0.276322
vt 0.625000 0.249944
vt 0.625000 0.218891
vt 0.625000 0.265303
vt 0.825000 0.500169
vt 0.825000 0.514619
vt 0.625000 0.284697
vt 0.625000 0.283201
vt 0.625000 0.034284
vt 0.625000 0.000000
vt 0.825000 0.716230
vt 0.825000 0.750000
vt 0.601878 0.970561
vt 0.825000 0.638391
vt 0.625000 0.140810
vt 0.875000 0.608857
vt 0.601703 0.279422
vt 0.825000 0.533770
vt 0.825000 0.500000
vt 0.625000 0.250000
vt 0.625000 0.750000
vt 0.625000 0.500000
vt 0.625000 0.531338
vt 0.625000 0.533770
vt 0.625000 0.639314
vt 0.675000 0.611609
vt 0.675000 0.533770
vt 0.675000 0.500000
vt 0.602023 0.471692
vt 0.675000 0.716230
vt 0.675000 0.717083
vt 0.415584 0.277503
vt 0.375152 0.292192
vt 0.392829 0.271815
vt 0.146090 0.500000
vt 0.167180 0.533770
vt 0.146090 0.533770
vt 0.420155 0.972052
vt 0.375152 0.957808
vt 0.405432 0.954624
vt 0.146090 0.750000
vt 0.167180 0.716230
vt 0.167187 0.750000
vt 0.410475 0.253385
vt 0.441518 0.264860
vt 0.125000 0.533770
vt 0.125730 0.500000
vt 0.442002 0.993355
vt 0.393406 0.978129
vt 0.125000 0.716230
vt 0.146090 0.716230
vt 0.508123 0.250028
vt 0.507981 0.261729
vt 0.508387 0.216230
vt 0.457446 0.983589
vt 0.508407 0.999945
vt 0.379614 0.000000
vt 0.508387 0.033770
vt 0.379505 0.034209
vt 0.405141 0.767515
vt 0.347124 0.764262
vt 0.367844 0.757290
vt 0.346880 0.726491
vt 0.366897 0.721529
vt 0.405141 0.482485
vt 0.347124 0.485738
vt 0.399024 0.460374
vt 0.367844 0.492710
vt 0.346880 0.523509
vt 0.441553 0.752215
vt 0.453007 0.761564
vt 0.441693 0.717809
vt 0.441553 0.497785
vt 0.441693 0.532191
vt 0.366897 0.528471
vt 0.508407 0.750018
vt 0.511182 0.760747
vt 0.508387 0.716230
vt 0.453007 0.488436
vt 0.508407 0.499982
vt 0.508387 0.533770
vt 0.625000 0.716230
vt 0.405432 0.800000
vt 0.399024 0.789626
vt 0.325926 0.750595
vt 0.405432 0.300000
vt 0.404914 0.295326
vt 0.174669 0.500000
vt 0.167187 0.500000
vt 0.512393 0.987841
vt 0.507840 0.000000
vt 0.697386 0.716230
vt 0.738663 0.750000
vt 0.699617 0.750000
vt 0.621133 0.837718
vt 0.595781 0.854502
vt 0.594665 0.846110
vt 0.802614 0.716230
vt 0.761337 0.750000
vt 0.758975 0.716230
vt 0.624848 0.925792
vt 0.594945 0.897749
vt 0.622187 0.893916
vt 0.802614 0.533770
vt 0.761337 0.500000
vt 0.800383 0.500000
vt 0.624848 0.324208
vt 0.594945 0.352251
vt 0.595813 0.342221
vt 0.697386 0.533770
vt 0.738663 0.500000
vt 0.741025 0.533770
vt 0.621133 0.412282
vt 0.595781 0.395498
vt 0.624779 0.385590
vt 0.594665 0.403890
vt 0.699617 0.500000
vt 0.741025 0.716230
vt 0.624779 0.864410
vt 0.800383 0.750000
vt 0.595813 0.907779
vt 0.511182 0.489253
vt 0.602023 0.778308
vt 0.625000 0.033770
vt 0.584366 0.400000
vt 0.584366 0.350000
vt 0.584366 0.850000
vt 0.584366 0.900000
vt 0.625000 0.470887
vt 0.625000 0.246312
vt 0.403842 0.219038
vt 0.758975 0.533770
vt 0.859697 0.741624
vt 0.659697 0.725426
vt 0.840303 0.518990
vt 0.825000 0.532917
vt 0.625000 0.216230
vt 0.675000 0.750000
vt 0.125730 0.750000
vt 0.622187 0.356084
s 0
usemtl Material
f 18/1/1 22/2/1 19/3/1
f 19/4/2 21/5/2 17/6/2
f 20/7/1 25/8/1 22/2/1
f 22/9/2 24/10/2 21/5/2
f 26/11/1 25/8/1 23/12/1
f 28/13/2 24/10/2 25/14/2
f 36/15/3 40/16/3 37/17/3
f 37/18/4 39/19/4 35/20/4
f 41/21/3 40/16/3 38/22/3
f 40/23/4 42/24/4 39/19/4
f 44/25/3 43/26/3 41/21/3
f 46/27/4 42/24/4 43/28/4
f 59/29/5 55/30/5 61/31/5
f 61/31/6 54/32/6 60/33/6
f 74/34/7 70/35/7 68/36/7
f 76/37/8 69/38/8 70/39/8
f 62/40/9 61/31/9 64/41/9
f 61/42/10 63/43/10 64/42/10
f 71/44/11 76/45/11 74/34/11
f 76/46/12 72/47/12 75/47/12
f 62/40/13 58/48/13 56/49/13
f 64/42/14 57/43/14 58/42/14
f 71/44/15 67/50/15 73/51/15
f 73/46/16 66/47/16 72/47/16
f 119/52/17 115/53/17 121/54/17
f 121/54/18 114/55/18 120/56/18
f 86/57/19 82/58/19 80/59/19
f 88/60/20 81/61/20 82/58/20
f 122/62/21 121/54/21 124/63/21
f 121/64/22 123/65/22 124/64/22
f 83/66/23 88/60/23 86/57/23
f 88/60/24 84/67/24 87/68/24
f 122/62/25 118/69/25 116/70/25
f 124/64/26 117/71/26 118/64/26
f 83/66/27 79/72/27 85/73/27
f 85/73/28 78/74/28 84/67/28
f 95/75/29 91/76/29 97/77/29
f 97/77/30 90/78/30 96/79/30
f 134/80/31 130/81/31 128/82/31
f 136/83/32 129/84/32 130/81/32
f 95/75/33 100/85/33 98/86/33
f 97/77/34 99/87/34 100/85/34
f 131/88/35 136/83/35 134/80/35
f 133/89/36 135/90/36 136/89/36
f 98/86/37 94/91/37 92/92/37
f 100/85/38 93/93/38 94/91/38
f 131/88/39 127/94/39 133/95/39
f 133/89/40 126/96/40 132/97/40
f 107/98/41 103/99/41 109/100/41
f 109/101/42 102/102/42 108/103/42
f 146/104/43 142/105/43 140/106/43
f 148/107/44 141/108/44 142/105/44
f 107/98/45 112/109/45 110/110/45
f 109/100/46 111/111/46 112/109/46
f 143/112/47 148/107/47 146/104/47
f 145/113/48 147/114/48 148/113/48
f 110/110/49 106/115/49 104/116/49
f 112/109/50 105/117/50 106/115/50
f 143/112/51 139/118/51 145/119/51
f 145/113/52 138/120/52 144/121/52
f 65/122/53 16/123/53 67/50/53
f 67/46/54 15/47/54 66/47/54
f 33/124/55 58/48/55 34/125/55
f 34/42/56 57/43/56 32/126/56
f 140/106/57 55/30/57 53/127/57
f 142/105/58 54/32/58 55/30/58
f 101/128/59 70/35/59 103/99/59
f 103/129/60 69/38/60 102/102/60
f 138/120/61 49/113/61 48/130/61
f 139/118/62 47/131/62 49/132/62
f 11/117/63 106/115/63 105/117/63
f 13/133/64 104/116/64 106/115/64
f 8/93/65 94/91/65 93/93/65
f 10/134/66 92/92/66 94/91/66
f 6/74/67 79/72/67 7/135/67
f 7/135/68 77/136/68 5/137/68
f 81/61/69 91/76/69 82/58/69
f 82/58/70 89/138/70 80/59/70
f 128/82/71 115/53/71 113/139/71
f 130/81/72 114/55/72 115/53/72
f 51/140/73 118/69/73 52/141/73
f 52/64/74 117/71/74 50/142/74
f 29/143/75 127/94/75 125/144/75
f 31/89/76 126/96/76 127/89/76
f 179/145/77 175/146/77 181/147/77
f 181/148/78 174/149/78 180/150/78
f 194/151/79 190/152/79 188/153/79
f 196/154/80 189/155/80 190/156/80
f 179/145/81 184/157/81 182/158/81
f 181/148/82 183/159/82 184/160/82
f 194/151/83 193/161/83 196/162/83
f 196/154/84 192/163/84 195/164/84
f 182/158/85 178/165/85 176/166/85
f 184/157/86 177/167/86 178/165/86
f 191/168/87 187/169/87 193/161/87
f 193/170/88 186/171/88 192/172/88
f 167/173/89 163/174/89 169/175/89
f 169/175/90 162/176/90 168/177/90
f 158/178/91 154/179/91 152/180/91
f 160/181/92 153/182/92 154/179/92
f 167/173/93 172/183/93 170/184/93
f 169/175/94 171/185/94 172/183/94
f 158/178/95 157/186/95 160/181/95
f 160/181/96 156/187/96 159/188/96
f 170/184/97 166/189/97 164/190/97
f 172/183/98 165/191/98 166/189/98
f 155/192/99 151/193/99 157/186/99
f 157/186/100 150/194/100 156/187/100
f 153/182/1 19/3/1 154/179/1
f 154/179/2 17/6/2 152/180/2
f 150/194/101 7/135/101 5/137/101
f 151/193/102 6/74/102 7/135/102
f 8/93/103 166/189/103 10/134/103
f 10/134/104 165/191/104 9/195/104
f 45/196/4 163/174/4 161/197/4
f 46/198/3 162/176/3 163/174/3
f 27/199/2 175/146/2 173/200/2
f 28/201/1 174/149/1 175/202/1
f 35/20/4 190/152/4 37/18/4
f 37/17/3 189/155/3 36/15/3
f 177/167/105 13/133/105 178/165/105
f 178/165/106 11/117/106 176/166/106
f 15/47/107 187/169/107 185/203/107
f 16/123/108 186/171/108 187/204/108
f 198/205/109 202/206/109 199/207/109
f 199/208/110 201/209/110 197/210/110
f 206/211/111 205/212/111 204/213/111
f 208/214/112 203/215/112 205/216/112
f 210/217/113 214/218/113 211/219/113
f 211/220/114 213/221/114 209/222/114
f 218/223/115 217/224/115 216/225/115
f 220/226/116 215/227/116 217/228/116
f 219/229/117 52/64/117 50/142/117
f 220/230/118 51/140/118 52/141/118
f 197/210/119 31/89/119 199/208/119
f 199/207/120 29/143/120 198/205/120
f 204/213/121 202/206/121 200/231/121
f 205/216/122 201/209/122 202/232/122
f 213/221/123 217/228/123 215/227/123
f 214/218/124 216/225/124 217/224/124
f 33/124/125 208/233/125 206/211/125
f 34/42/126 207/234/126 208/214/126
f 209/222/127 49/113/127 211/220/127
f 211/219/128 47/131/128 210/217/128
f 5/137/129 165/191/129 150/194/129
f 6/74/130 117/71/130 78/74/130
f 83/66/131 95/75/131 92/92/131
f 50/142/130 149/235/130 158/178/130
f 167/173/132 164/190/132 30/236/132
f 8/93/132 126/96/132 30/236/132
f 14/237/133 177/167/133 186/171/133
f 71/44/134 107/98/134 104/116/134
f 179/145/130 176/166/130 48/130/130
f 11/117/130 138/120/130 48/130/130
f 32/126/132 185/203/132 194/151/132
f 15/47/132 57/43/132 66/47/132
f 4/238/130 50/142/130 17/6/130
f 18/1/135 41/21/135 20/7/135
f 153/182/135 44/25/135 18/1/135
f 3/239/130 215/227/130 21/5/130
f 20/7/135 38/22/135 23/12/135
f 48/130/130 3/239/130 24/10/130
f 23/12/135 36/15/135 26/11/135
f 26/11/135 189/155/135 174/149/135
f 218/223/136 29/143/136 51/140/136
f 131/88/134 119/52/134 116/70/134
f 30/236/132 1/240/132 42/24/132
f 2/241/132 32/126/132 35/20/132
f 143/112/131 59/29/131 56/49/131
f 47/131/137 206/211/137 210/217/137
f 1/240/132 203/215/132 39/19/132
f 69/38/138 60/33/138 54/32/138
f 102/102/139 54/32/139 141/108/139
f 72/47/140 57/43/140 63/43/140
f 75/47/141 63/43/141 60/43/141
f 84/67/142 117/71/142 123/65/142
f 114/55/139 90/78/139 81/61/139
f 81/61/143 120/56/143 114/55/143
f 87/68/144 123/65/144 120/242/144
f 129/84/138 96/79/138 90/78/138
f 132/97/140 93/93/140 99/87/140
f 135/90/141 99/87/141 96/79/141
f 141/108/143 108/103/143 102/102/143
f 144/121/142 105/117/142 111/111/142
f 147/114/144 111/111/144 108/243/144
f 156/187/145 165/191/145 171/185/145
f 153/182/146 168/177/146 162/176/146
f 159/188/147 171/185/147 168/177/147
f 189/155/148 180/150/148 174/149/148
f 192/172/149 177/167/149 183/244/149
f 195/164/150 183/159/150 180/150/150
f 197/210/132 201/209/132 1/240/132
f 200/231/151 218/223/151 216/225/151
f 212/245/139 200/231/139 216/225/139
f 203/215/132 207/234/132 2/241/132
f 206/211/152 212/245/152 210/217/152
f 209/222/130 213/221/130 3/239/130
f 215/227/130 219/229/130 4/238/130
f 18/1/1 20/7/1 22/2/1
f 19/4/2 22/9/2 21/5/2
f 20/7/1 23/12/1 25/8/1
f 22/9/2 25/14/2 24/10/2
f 26/11/1 28/201/1 25/8/1
f 28/13/2 27/199/2 24/10/2
f 36/15/3 38/22/3 40/16/3
f 37/18/4 40/23/4 39/19/4
f 41/21/3 43/26/3 40/16/3
f 40/23/4 43/28/4 42/24/4
f 44/25/3 46/198/3 43/26/3
f 46/27/4 45/196/4 42/24/4
f 59/29/5 53/127/5 55/30/5
f 61/31/6 55/30/6 54/32/6
f 74/34/7 76/45/7 70/35/7
f 76/37/8 75/246/8 69/38/8
f 62/40/9 59/29/9 61/31/9
f 61/42/10 60/43/10 63/43/10
f 71/44/11 73/51/11 76/45/11
f 76/46/12 73/46/12 72/47/12
f 62/40/13 64/41/13 58/48/13
f 64/42/14 63/43/14 57/43/14
f 71/44/15 65/122/15 67/50/15
f 73/46/16 67/46/16 66/47/16
f 119/52/17 113/139/17 115/53/17
f 121/54/18 115/53/18 114/55/18
f 86/57/19 88/60/19 82/58/19
f 88/60/20 87/68/20 81/61/20
f 122/62/21 119/52/21 121/54/21
f 121/64/22 120/242/22 123/65/22
f 83/66/23 85/73/23 88/60/23
f 88/60/24 85/73/24 84/67/24
f 122/62/25 124/63/25 118/69/25
f 124/64/26 123/65/26 117/71/26
f 83/66/27 77/136/27 79/72/27
f 85/73/28 79/72/28 78/74/28
f 95/75/29 89/138/29 91/76/29
f 97/77/30 91/76/30 90/78/30
f 134/80/31 136/83/31 130/81/31
f 136/83/32 135/247/32 129/84/32
f 95/75/33 97/77/33 100/85/33
f 97/77/34 96/79/34 99/87/34
f 131/88/35 133/95/35 136/83/35
f 133/89/36 132/97/36 135/90/36
f 98/86/37 100/85/37 94/91/37
f 100/85/38 99/87/38 93/93/38
f 131/88/39 125/144/39 127/94/39
f 133/89/40 127/89/40 126/96/40
f 107/98/41 101/128/41 103/99/41
f 109/101/42 103/129/42 102/102/42
f 146/104/43 148/107/43 142/105/43
f 148/107/44 147/248/44 141/108/44
f 107/98/45 109/100/45 112/109/45
f 109/100/46 108/243/46 111/111/46
f 143/112/47 145/119/47 148/107/47
f 145/113/48 144/121/48 147/114/48
f 110/110/49 112/109/49 106/115/49
f 112/109/50 111/111/50 105/117/50
f 143/112/51 137/249/51 139/118/51
f 145/113/52 139/113/52 138/120/52
f 65/122/53 14/237/53 16/123/53
f 67/46/54 16/46/54 15/47/54
f 33/124/55 56/49/55 58/48/55
f 34/42/56 58/42/56 57/43/56
f 140/106/57 142/105/57 55/30/57
f 142/105/58 141/108/58 54/32/58
f 101/128/59 68/36/59 70/35/59
f 103/129/60 70/39/60 69/38/60
f 138/120/61 139/113/61 49/113/61
f 139/118/62 137/249/62 47/131/62
f 11/117/63 13/133/63 106/115/63
f 13/133/64 12/250/64 104/116/64
f 8/93/65 10/134/65 94/91/65
f 10/134/66 9/195/66 92/92/66
f 6/74/67 78/74/67 79/72/67
f 7/135/68 79/72/68 77/136/68
f 81/61/69 90/78/69 91/76/69
f 82/58/70 91/76/70 89/138/70
f 128/82/71 130/81/71 115/53/71
f 130/81/72 129/84/72 114/55/72
f 51/140/73 116/70/73 118/69/73
f 52/64/74 118/64/74 117/71/74
f 29/143/75 31/251/75 127/94/75
f 31/89/76 30/236/76 126/96/76
f 179/145/77 173/200/77 175/146/77
f 181/148/78 175/202/78 174/149/78
f 194/151/79 196/162/79 190/152/79
f 196/154/80 195/164/80 189/155/80
f 179/145/81 181/147/81 184/157/81
f 181/148/82 180/150/82 183/159/82
f 194/151/83 191/168/83 193/161/83
f 196/154/84 193/252/84 192/163/84
f 182/158/85 184/157/85 178/165/85
f 184/157/86 183/244/86 177/167/86
f 191/168/87 185/203/87 187/169/87
f 193/170/88 187/204/88 186/171/88
f 167/173/89 161/197/89 163/174/89
f 169/175/90 163/174/90 162/176/90
f 158/178/91 160/181/91 154/179/91
f 160/181/92 159/188/92 153/182/92
f 167/173/93 169/175/93 172/183/93
f 169/175/94 168/177/94 171/185/94
f 158/178/95 155/192/95 157/186/95
f 160/181/96 157/186/96 156/187/96
f 170/184/97 172/183/97 166/189/97
f 172/183/98 171/185/98 165/191/98
f 155/192/99 149/235/99 151/193/99
f 157/186/100 151/193/100 150/194/100
f 153/182/1 18/1/1 19/3/1
f 154/179/2 19/4/2 17/6/2
f 150/194/153 151/193/153 7/135/153
f 151/193/154 149/235/154 6/74/154
f 8/93/155 164/190/155 166/189/155
f 10/134/156 166/189/156 165/191/156
f 45/196/4 46/27/4 163/174/4
f 46/198/3 44/25/3 162/176/3
f 27/199/2 28/13/2 175/146/2
f 28/201/1 26/11/1 174/149/1
f 35/20/4 188/153/4 190/152/4
f 37/17/3 190/156/3 189/155/3
f 177/167/157 12/250/157 13/133/157
f 178/165/158 13/133/158 11/117/158
f 15/47/159 16/46/159 187/169/159
f 16/123/160 14/237/160 186/171/160
f 198/205/161 200/231/161 202/206/161
f 199/208/162 202/232/162 201/209/162
f 206/211/163 208/233/163 205/212/163
f 208/214/164 207/234/164 203/215/164
f 210/217/165 212/245/165 214/218/165
f 211/220/166 214/253/166 213/221/166
f 218/223/167 220/230/167 217/224/167
f 220/226/168 219/229/168 215/227/168
f 219/229/169 220/226/169 52/64/169
f 220/230/170 218/223/170 51/140/170
f 197/210/171 30/236/171 31/89/171
f 199/207/172 31/251/172 29/143/172
f 204/213/121 205/212/121 202/206/121
f 205/216/122 203/215/122 201/209/122
f 213/221/123 214/253/123 217/228/123
f 214/218/124 212/245/124 216/225/124
f 33/124/173 34/125/173 208/233/173
f 34/42/174 32/126/174 207/234/174
f 209/222/175 48/130/175 49/113/175
f 211/219/176 49/132/176 47/131/176
f 5/137/129 9/195/129 165/191/129
f 6/74/130 50/142/130 117/71/130
f 92/92/131 9/195/131 5/137/131
f 5/137/131 77/136/131 83/66/131
f 83/66/131 86/57/131 80/59/131
f 80/59/131 89/138/131 95/75/131
f 95/75/131 98/86/131 92/92/131
f 92/92/131 5/137/131 83/66/131
f 83/66/131 80/59/131 95/75/131
f 152/180/130 17/6/130 50/142/130
f 50/142/130 6/74/130 149/235/130
f 149/235/130 155/192/130 158/178/130
f 158/178/130 152/180/130 50/142/130
f 45/196/132 161/197/132 167/173/132
f 167/173/132 170/184/132 164/190/132
f 164/190/132 8/93/132 30/236/132
f 30/236/132 45/196/132 167/173/132
f 8/93/132 93/93/132 126/96/132
f 14/237/133 12/250/133 177/167/133
f 104/116/134 12/250/134 14/237/134
f 14/237/134 65/122/134 71/44/134
f 71/44/134 74/34/134 68/36/134
f 68/36/134 101/128/134 107/98/134
f 107/98/134 110/110/134 104/116/134
f 104/116/134 14/237/134 71/44/134
f 71/44/134 68/36/134 107/98/134
f 27/199/130 173/200/130 179/145/130
f 179/145/130 182/158/130 176/166/130
f 176/166/130 11/117/130 48/130/130
f 48/130/130 27/199/130 179/145/130
f 11/117/130 105/117/130 138/120/130
f 188/153/132 35/20/132 32/126/132
f 32/126/132 15/47/132 185/203/132
f 185/203/132 191/168/132 194/151/132
f 194/151/132 188/153/132 32/126/132
f 15/47/132 32/126/132 57/43/132
f 17/6/130 21/5/130 4/238/130
f 4/238/130 219/229/130 50/142/130
f 18/1/135 44/25/135 41/21/135
f 153/182/135 162/176/135 44/25/135
f 21/5/130 24/10/130 3/239/130
f 3/239/130 213/221/130 215/227/130
f 215/227/130 4/238/130 21/5/130
f 20/7/135 41/21/135 38/22/135
f 24/10/130 27/199/130 48/130/130
f 48/130/130 209/222/130 3/239/130
f 23/12/135 38/22/135 36/15/135
f 26/11/135 36/15/135 189/155/135
f 218/223/136 198/205/136 29/143/136
f 116/70/134 51/140/134 29/143/134
f 29/143/134 125/144/134 131/88/134
f 131/88/134 134/80/134 128/82/134
f 128/82/134 113/139/134 119/52/134
f 119/52/134 122/62/134 116/70/134
f 116/70/134 29/143/134 131/88/134
f 131/88/134 128/82/134 119/52/134
f 42/24/132 45/196/132 30/236/132
f 30/236/132 197/210/132 1/240/132
f 35/20/132 39/19/132 2/241/132
f 2/241/132 207/234/132 32/126/132
f 56/49/131 33/124/131 47/131/131
f 47/131/131 137/249/131 143/112/131
f 143/112/131 146/104/131 140/106/131
f 140/106/131 53/127/131 59/29/131
f 59/29/131 62/40/131 56/49/131
f 56/49/131 47/131/131 143/112/131
f 143/112/131 140/106/131 59/29/131
f 47/131/137 33/124/137 206/211/137
f 39/19/132 42/24/132 1/240/132
f 1/240/132 201/209/132 203/215/132
f 203/215/132 2/241/132 39/19/132
f 69/38/138 75/246/138 60/33/138
f 102/102/139 69/38/139 54/32/139
f 72/47/140 66/47/140 57/43/140
f 75/47/141 72/47/141 63/43/141
f 84/67/142 78/74/142 117/71/142
f 114/55/139 129/84/139 90/78/139
f 81/61/143 87/68/143 120/56/143
f 87/68/144 84/67/144 123/65/144
f 129/84/138 135/247/138 96/79/138
f 132/97/140 126/96/140 93/93/140
f 135/90/141 132/97/141 99/87/141
f 141/108/143 147/248/143 108/103/143
f 144/121/142 138/120/142 105/117/142
f 147/114/144 144/121/144 111/111/144
f 156/187/145 150/194/145 165/191/145
f 153/182/146 159/188/146 168/177/146
f 159/188/147 156/187/147 171/185/147
f 189/155/148 195/164/148 180/150/148
f 192/172/149 186/171/149 177/167/149
f 195/164/150 192/163/150 183/159/150
f 200/231/151 198/205/151 218/223/151
f 212/245/139 204/213/139 200/231/139
f 206/211/152 204/213/152 212/245/152
